<?xml version="1.0" encoding="utf-8"?>
<!-- Generator: Adobe Illustrator 16.0.0, SVG Export Plug-In . SVG Version: 6.00 Build 0)  -->
<!DOCTYPE svg PUBLIC "-//W3C//DTD SVG 1.1//EN" "http://www.w3.org/Graphics/SVG/1.1/DTD/svg11.dtd">
<svg version="1.1" id="Layer_1" xmlns="http://www.w3.org/2000/svg" xmlns:xlink="http://www.w3.org/1999/xlink" x="0px" y="0px"
	 width="13px" height="18px" viewBox="0 0 13 18" enable-background="new 0 0 13 18" xml:space="preserve">
<path fill="#FFFFFF" d="M6.401,17.475L6.12,17.189C5.87,16.938,0,11.022,0,6.903c0-3.528,2.872-6.4,6.401-6.4
	c3.528,0,6.4,2.872,6.4,6.4c0,4.119-5.87,10.035-6.12,10.286L6.401,17.475z M6.401,1.3c-3.087,0-5.604,2.517-5.604,5.604
	c0,3.303,4.428,8.191,5.604,9.431c1.176-1.239,5.604-6.128,5.604-9.431C12.005,3.816,9.488,1.3,6.401,1.3"/>
<path fill="#FFFFFF" d="M6.4,4.901c1.119,0,2,0.88,2,2.001c0,1.12-0.881,2.001-2,2.001c-1.121,0-2.002-0.881-2.002-2.001
	C4.398,5.781,5.279,4.901,6.4,4.901"/>
</svg>
