<svg xmlns="http://www.w3.org/2000/svg" viewBox="0 0 14.59 20.09"><defs><style>.cls-1{fill:#999;}</style></defs><title>Asset 3</title><g id="Layer_2" data-name="Layer 2"><g id="SET_BT_Phone_" data-name="SET BT (Phone)"><g id="BT_Location_IA_" data-name="BT Location (IA)"><g id="_Group_" data-name="&lt;Group&gt;"><path id="_Compound_Path_" data-name="&lt;Compound Path&gt;" class="cls-1" d="M7.3,4.89A2.41,2.41,0,1,1,4.89,7.3,2.41,2.41,0,0,1,7.3,4.89m0-.63a3,3,0,1,0,3,3,3,3,0,0,0-3-3Z"/></g><g id="_Group_2" data-name="&lt;Group&gt;"><path id="_Compound_Path_2" data-name="&lt;Compound Path&gt;" class="cls-1" d="M7.3.63A6.67,6.67,0,0,1,14,7.3c0,2.53-3.48,7.79-6.66,11.79C4.12,15.08.63,9.82.63,7.3A6.67,6.67,0,0,1,7.3.63M7.3,0A7.3,7.3,0,0,0,0,7.3c0,3.62,6,11.19,7.3,12.8,1.31-1.61,7.3-9.18,7.3-12.8A7.3,7.3,0,0,0,7.3,0Z"/></g></g></g></g></svg>