<?xml version="1.0" encoding="utf-8"?>
<!-- Generator: Adobe Illustrator 16.0.0, SVG Export Plug-In . SVG Version: 6.00 Build 0)  -->
<!DOCTYPE svg PUBLIC "-//W3C//DTD SVG 1.1//EN" "http://www.w3.org/Graphics/SVG/1.1/DTD/svg11.dtd">
<svg version="1.1" id="Layer_1" xmlns="http://www.w3.org/2000/svg" xmlns:xlink="http://www.w3.org/1999/xlink" x="0px" y="0px"
	 width="17px" height="17px" viewBox="0 0 17 17" enable-background="new 0 0 17 17" xml:space="preserve">
<path fill="#818181" d="M8.152,0.067l-8.56,4.755l-0.036,1.905h1.09v6.305H15.76V6.728l1.098,0.007l-0.005-1.875L8.152,0.067z
	 M2.267,11.271V5.176l5.885-3.276l5.917,3.346l0.018,5.996L2.267,11.271z"/>
<path fill="#818181" d="M1.276,15.791c0.165,0,0.599,0.072,0.599,0.651c0,0.577-0.434,0.646-0.599,0.646
	c-0.166,0-0.599-0.069-0.599-0.646C0.677,15.863,1.11,15.791,1.276,15.791 M1.276,16.871c0.14,0,0.337-0.085,0.337-0.429
	c0-0.346-0.197-0.434-0.337-0.434c-0.14,0-0.338,0.088-0.338,0.434C0.938,16.786,1.136,16.871,1.276,16.871"/>
<path fill="#818181" d="M2.604,17.058h-0.26v-1.231H2.91c0.245,0,0.388,0.151,0.388,0.394c0,0.111-0.064,0.392-0.396,0.392H2.604
	V17.058z M2.844,16.396c0.194,0,0.194-0.135,0.194-0.19c0-0.118-0.068-0.168-0.23-0.168H2.604v0.358H2.844z"/>
<path fill="#818181" d="M4.021,17.058H3.758v-1.231h0.569c0.241,0,0.386,0.151,0.386,0.394c0,0.111-0.061,0.392-0.396,0.392H4.021
	V17.058z M4.259,16.396c0.195,0,0.195-0.135,0.195-0.19c0-0.118-0.068-0.168-0.228-0.168H4.021v0.358H4.259z"/>
<path fill="#818181" d="M5.718,15.791c0.165,0,0.597,0.072,0.597,0.651c0,0.577-0.432,0.646-0.597,0.646s-0.6-0.069-0.6-0.646
	C5.118,15.863,5.553,15.791,5.718,15.791 M5.718,16.871c0.141,0,0.338-0.085,0.338-0.429c0-0.346-0.197-0.434-0.338-0.434
	c-0.142,0-0.338,0.088-0.338,0.434C5.38,16.786,5.576,16.871,5.718,16.871"/>
<path fill="#818181" d="M6.785,15.825h0.627c0.334,0,0.393,0.241,0.393,0.35c0,0.134-0.07,0.249-0.192,0.29
	c0.101,0.045,0.158,0.083,0.158,0.312c0,0.182,0,0.227,0.053,0.246v0.036H7.537C7.519,17,7.51,16.935,7.51,16.807
	c0-0.168-0.007-0.233-0.203-0.233H7.039v0.485H6.785V15.825z M7.345,16.365c0.133,0,0.199-0.045,0.199-0.166
	c0-0.065-0.027-0.162-0.18-0.162H7.039v0.328H7.345z"/>
<polygon fill="#818181" points="8.792,17.058 8.53,17.058 8.53,16.04 8.155,16.04 8.155,15.824 9.164,15.824 9.164,16.04 
	8.792,16.04 "/>
<path fill="#818181" d="M10.576,16.627c0,0.321-0.197,0.463-0.511,0.463c-0.112,0-0.282-0.031-0.392-0.149
	c-0.071-0.075-0.094-0.178-0.1-0.3v-0.815h0.264v0.802c0,0.168,0.103,0.243,0.223,0.243c0.182,0,0.25-0.085,0.25-0.234v-0.811h0.266
	V16.627z"/>
<polygon fill="#818181" points="11.853,15.824 12.096,15.824 12.096,17.058 11.836,17.058 11.327,16.177 11.323,16.177 
	11.323,17.058 11.081,17.058 11.081,15.824 11.355,15.824 11.848,16.682 11.853,16.682 "/>
<rect x="12.584" y="15.824" fill="#818181" width="0.259" height="1.232"/>
<polygon fill="#818181" points="13.877,17.058 13.615,17.058 13.615,16.04 13.238,16.04 13.238,15.824 14.248,15.824 14.248,16.04 
	13.877,16.04 "/>
<polygon fill="#818181" points="15.25,17.058 14.99,17.058 14.99,16.593 14.56,15.824 14.867,15.824 15.125,16.359 15.371,15.824 
	15.666,15.824 15.25,16.595 "/>
<polygon fill="#818181" points="1.636,14.246 0.984,14.246 0.984,14.506 1.586,14.506 1.586,14.724 0.984,14.724 0.984,15.042 
	1.666,15.042 1.666,15.262 0.732,15.262 0.732,14.029 1.636,14.029 "/>
<path fill="#818181" d="M2.924,15.351L2.78,15.21c-0.117,0.067-0.243,0.085-0.316,0.085c-0.164,0-0.589-0.071-0.589-0.652
	c0-0.575,0.425-0.647,0.589-0.647c0.163,0,0.59,0.072,0.59,0.647c0,0.205-0.051,0.346-0.127,0.441l0.135,0.126L2.924,15.351z
	 M2.612,14.785l0.129,0.123c0.034-0.063,0.057-0.148,0.057-0.266c0-0.342-0.195-0.428-0.334-0.428c-0.141,0-0.336,0.086-0.336,0.428
	c0,0.346,0.195,0.434,0.336,0.434c0.042,0,0.093-0.011,0.139-0.034l-0.125-0.117L2.612,14.785z"/>
<path fill="#818181" d="M4.282,14.829c0,0.325-0.195,0.466-0.508,0.466c-0.109,0-0.279-0.028-0.39-0.153
	c-0.066-0.073-0.093-0.173-0.095-0.297v-0.815h0.263v0.799c0,0.172,0.098,0.248,0.219,0.248c0.177,0,0.249-0.088,0.249-0.236v-0.811
	h0.262V14.829z"/>
<path fill="#818181" d="M4.674,15.262H4.403l0.439-1.232h0.299l0.432,1.232H5.294l-0.077-0.254H4.759L4.674,15.262z M4.828,14.794
	h0.317l-0.155-0.485H4.986L4.828,14.794z"/>
<polygon fill="#818181" points="6.048,15.037 6.658,15.037 6.658,15.261 5.789,15.261 5.789,14.029 6.048,14.029 "/>
<polygon fill="#818181" points="8.128,14.709 8.128,15.26 7.87,15.26 7.87,14.029 8.128,14.029 8.128,14.496 8.607,14.496 
	8.607,14.029 8.865,14.029 8.865,15.26 8.607,15.26 8.607,14.709 "/>
<path fill="#818181" d="M9.652,13.995c0.164,0,0.59,0.071,0.59,0.648c0,0.581-0.426,0.651-0.59,0.651c-0.162,0-0.59-0.07-0.59-0.651
	C9.063,14.066,9.49,13.995,9.652,13.995 M9.652,15.076c0.141,0,0.336-0.089,0.336-0.433c0-0.343-0.195-0.43-0.336-0.43
	c-0.139,0-0.334,0.087-0.334,0.43C9.318,14.987,9.514,15.076,9.652,15.076"/>
<path fill="#818181" d="M11.436,14.829c0,0.325-0.193,0.466-0.505,0.466c-0.112,0-0.28-0.028-0.39-0.153
	c-0.068-0.073-0.094-0.173-0.096-0.297v-0.815h0.264v0.799c0,0.172,0.095,0.248,0.216,0.248c0.179,0,0.25-0.088,0.25-0.236v-0.811
	h0.261V14.829z"/>
<path fill="#818181" d="M11.873,14.88c0,0.071,0.035,0.202,0.261,0.202c0.12,0,0.257-0.031,0.257-0.162
	c0-0.096-0.094-0.12-0.223-0.151l-0.133-0.033c-0.199-0.044-0.391-0.092-0.391-0.359c0-0.138,0.073-0.379,0.475-0.379
	c0.375,0,0.478,0.247,0.478,0.396h-0.246c-0.007-0.055-0.028-0.186-0.251-0.186c-0.1,0-0.216,0.038-0.216,0.148
	c0,0.097,0.079,0.116,0.131,0.13l0.299,0.071c0.169,0.043,0.324,0.111,0.324,0.333c0,0.371-0.376,0.404-0.483,0.404
	c-0.451,0-0.527-0.259-0.527-0.415H11.873z"/>
<rect x="12.813" y="14.029" fill="#818181" width="0.258" height="1.23"/>
<polygon fill="#818181" points="14.063,14.029 14.3,14.029 14.3,15.261 14.044,15.261 13.54,14.382 13.537,14.382 13.537,15.261 
	13.3,15.261 13.3,14.029 13.568,14.029 14.056,14.887 14.063,14.887 "/>
<path fill="#818181" d="M15.125,14.598h0.515v0.662h-0.172l-0.026-0.152c-0.063,0.074-0.158,0.188-0.385,0.188
	c-0.296,0-0.564-0.213-0.564-0.646c0-0.337,0.188-0.653,0.605-0.653c0.374,0,0.523,0.247,0.537,0.416h-0.256
	c0-0.05-0.09-0.202-0.271-0.202c-0.183,0-0.352,0.126-0.352,0.441c0,0.338,0.182,0.426,0.357,0.426c0.057,0,0.245-0.024,0.299-0.274
	h-0.287V14.598z"/>
<rect x="5.191" y="5.514" fill="#818181" width="5.786" height="1.895"/>
<rect x="5.191" y="8.142" fill="#818181" width="5.786" height="1.896"/>
</svg>
