<?xml version="1.0" encoding="utf-8"?>
<!-- Generator: Adobe Illustrator 16.0.0, SVG Export Plug-In . SVG Version: 6.00 Build 0)  -->
<!DOCTYPE svg PUBLIC "-//W3C//DTD SVG 1.1//EN" "http://www.w3.org/Graphics/SVG/1.1/DTD/svg11.dtd">
<svg version="1.1" id="Layer_1" xmlns="http://www.w3.org/2000/svg" xmlns:xlink="http://www.w3.org/1999/xlink" x="0px" y="0px"
	 width="18px" height="18px" viewBox="0 0 18 18" enable-background="new 0 0 18 18" xml:space="preserve">
<path fill="none" stroke="#FFFFFF" stroke-width="0.8" stroke-miterlimit="10" d="M17.355,12.67c0,2.361-1.915,4.276-4.277,4.276
	H6.179c-2.361,0-4.276-1.915-4.276-4.276V5.308c0-2.362,1.915-4.277,4.276-4.277h6.899c2.362,0,4.277,1.915,4.277,4.277V12.67z"/>
<path fill="none" stroke="#FFFFFF" stroke-width="0.8" stroke-miterlimit="10" d="M13.423,8.965
	c-0.046,2.095-1.699,3.794-3.794,3.794c-2.096,0-3.794-1.699-3.794-3.794c0-2.096,1.7-3.855,3.794-3.794
	C12.18,5.244,13.469,6.877,13.423,8.965z"/>
<path fill="#FFFFFF" d="M15.366,4.273c0,0.588-0.477,1.063-1.064,1.063s-1.063-0.476-1.063-1.063s0.476-1.064,1.063-1.064
	S15.366,3.686,15.366,4.273"/>
<path fill="none" stroke="#FFFFFF" stroke-width="0.8" stroke-miterlimit="10" d="M17.355,12.682c0,2.361-1.915,4.276-4.277,4.276
	H6.179c-2.361,0-4.276-1.915-4.276-4.276V5.319c0-2.362,1.915-4.277,4.276-4.277h6.899c2.362,0,4.277,1.915,4.277,4.277V12.682z"/>
<path fill="none" stroke="#FFFFFF" stroke-width="0.8" stroke-miterlimit="10" d="M13.423,8.977
	c-0.046,2.095-1.699,3.794-3.794,3.794c-2.096,0-3.794-1.699-3.794-3.794c0-2.096,1.7-3.855,3.794-3.794
	C12.18,5.256,13.469,6.889,13.423,8.977z"/>
<path fill="#FFFFFF" d="M15.366,4.285c0,0.588-0.477,1.063-1.064,1.063s-1.063-0.476-1.063-1.063s0.476-1.064,1.063-1.064
	S15.366,3.697,15.366,4.285"/>
</svg>
