<?xml version="1.0" encoding="utf-8"?>
<!-- Generator: Adobe Illustrator 16.0.0, SVG Export Plug-In . SVG Version: 6.00 Build 0)  -->
<!DOCTYPE svg PUBLIC "-//W3C//DTD SVG 1.1//EN" "http://www.w3.org/Graphics/SVG/1.1/DTD/svg11.dtd">
<svg version="1.1" id="Layer_1" xmlns="http://www.w3.org/2000/svg" xmlns:xlink="http://www.w3.org/1999/xlink" x="0px" y="0px"
	 width="16px" height="18px" viewBox="0 0 16 18" enable-background="new 0 0 16 18" xml:space="preserve">
<path fill="#818181" d="M11.256,14.593c-0.472,0.986-1.166,1.782-2.086,2.382C8.255,17.57,7.222,17.87,6.068,17.87
	c-1.58,0-2.928-0.56-4.045-1.674c-1.117-1.122-1.673-2.469-1.673-4.051c0-1.055,0.254-2.009,0.763-2.877
	C1.62,8.404,2.32,7.711,3.205,7.195l0.158,1.063C2.742,8.688,2.249,9.241,1.887,9.92c-0.36,0.682-0.543,1.417-0.543,2.215
	c0,1.302,0.459,2.414,1.373,3.344c0.921,0.93,2.036,1.396,3.351,1.396c1.107,0,2.085-0.335,2.938-1.015
	c0.848-0.673,1.408-1.532,1.676-2.575L11.256,14.593z M16.045,14.85l-3.193,1.288l-2.281-5.714H4.405L3.509,1.509
	c0-0.385,0.131-0.714,0.4-0.978C4.174,0.26,4.499,0.13,4.882,0.13c0.367,0,0.687,0.13,0.956,0.398
	C6.102,0.793,6.234,1.116,6.234,1.5c0,0.401-0.108,0.726-0.326,0.975c-0.218,0.251-0.509,0.38-0.873,0.38l0.326,3.679h4.166v1.342
	H5.493L5.67,9.303h5.659l2.276,5.226l1.957-0.769L16.045,14.85z"/>
</svg>
