<?xml version="1.0" encoding="utf-8"?>
<!-- Generator: Adobe Illustrator 16.0.0, SVG Export Plug-In . SVG Version: 6.00 Build 0)  -->
<!DOCTYPE svg PUBLIC "-//W3C//DTD SVG 1.1//EN" "http://www.w3.org/Graphics/SVG/1.1/DTD/svg11.dtd">
<svg version="1.1" id="Layer_1" xmlns="http://www.w3.org/2000/svg" xmlns:xlink="http://www.w3.org/1999/xlink" x="0px" y="0px"
	 width="17px" height="17px" viewBox="0 0 17 17" enable-background="new 0 0 17 17" xml:space="preserve">
<path fill="#818181" d="M11.565,0.594c-0.034,0.001-0.069,0.002-0.106,0.005c-1.416,0.245-2.196,1.744-2.31,3.064
	c-0.165,1.2,0.364,2.741,1.681,3.01c0.191,0.036,0.39,0.021,0.576-0.03c1.586-0.532,2.295-2.41,2.066-3.965
	C13.406,1.672,12.648,0.579,11.565,0.594 M5.557,0.658C4.676,0.68,3.99,1.573,3.85,2.413c-0.295,1.665,0.463,3.733,2.197,4.26
	c0.162,0.035,0.331,0.039,0.495,0.014c1.171-0.195,1.667-1.509,1.619-2.57c-0.035-1.4-0.762-3.018-2.214-3.411
	C5.813,0.669,5.683,0.654,5.557,0.658 M15.406,5.387c-1.525,0.091-2.57,1.611-2.719,3.032c-0.202,1.024,0.344,2.395,1.514,2.477
	c1.629-0.021,2.741-1.763,2.787-3.26C17.093,6.645,16.509,5.44,15.406,5.387 M2.062,5.724C1.413,5.719,0.774,6.106,0.563,6.767
	c-0.565,1.763,0.571,3.997,2.439,4.368c0.779,0.133,1.464-0.466,1.658-1.187c0.409-1.541-0.432-3.33-1.856-4.029
	C2.572,5.788,2.315,5.726,2.062,5.724 M8.896,8.887C7.625,8.89,6.333,9.534,5.51,10.495c-0.889,1.119-1.617,2.422-1.902,3.835
	c-0.347,1.018,0.438,2.188,1.525,2.195c1.308,0.036,2.432-0.862,3.732-0.929c1.104-0.168,2.092,0.405,3.084,0.781
	c0.844,0.361,2.012,0.223,2.443-0.687c0.339-0.926-0.16-1.914-0.574-2.737c-0.843-1.336-1.746-2.74-3.13-3.573
	C10.134,9.037,9.518,8.886,8.896,8.887"/>
</svg>
