<?xml version="1.0" encoding="utf-8"?>
<!-- Generator: Adobe Illustrator 16.0.0, SVG Export Plug-In . SVG Version: 6.00 Build 0)  -->
<!DOCTYPE svg PUBLIC "-//W3C//DTD SVG 1.1//EN" "http://www.w3.org/Graphics/SVG/1.1/DTD/svg11.dtd">
<svg version="1.1" id="Layer_1" xmlns="http://www.w3.org/2000/svg" xmlns:xlink="http://www.w3.org/1999/xlink" x="0px" y="0px"
	 width="17px" height="18px" viewBox="0 0 17 18" enable-background="new 0 0 17 18" xml:space="preserve">
<path fill="#818181" d="M13.217,8.717h-0.51V8.019c0-0.607-0.465-0.735-0.855-0.735h-1.369c-0.425,0-0.789-0.21-0.998-0.577
	c-0.166-0.292-0.216-0.65-0.146-0.977C8.885,5.677,8.581,5.479,8.394,5.302C8.091,5.017,7.917,4.618,7.917,4.21
	c0-0.771,0.524-1.551,1.528-1.551V3.17c-0.806,0-1.018,0.68-1.018,1.04c0,0.269,0.115,0.531,0.316,0.721
	c0.232,0.219,0.558,0.323,0.944,0.3c0.094-0.006,0.184,0.041,0.233,0.122c0.049,0.08,0.05,0.181,0.002,0.262
	C9.781,5.855,9.783,6.2,9.927,6.453c0.084,0.146,0.248,0.32,0.556,0.32h1.369c0.842,0,1.365,0.478,1.365,1.245V8.717z"/>
<path fill="#818181" d="M14.012,8.717h-0.511V7.778c0-0.828-0.569-1.709-1.625-1.709h-0.81c-0.096,0-0.184-0.053-0.228-0.139
	c-0.043-0.085-0.034-0.188,0.021-0.266c0.186-0.255,0.296-0.566,0.296-0.836c0-0.674-0.535-1.164-1.272-1.164v-0.51
	c1.016,0,1.782,0.721,1.782,1.674c0,0.238-0.058,0.49-0.161,0.73h0.372c1.336,0,2.136,1.129,2.136,2.219V8.717z"/>
<rect x="12.707" y="8.969" fill="#818181" width="0.51" height="1.54"/>
<rect x="13.504" y="8.969" fill="#818181" width="0.51" height="1.54"/>
<polygon fill="#818181" points="12.422,10.515 12.422,8.992 9.056,8.992 10.578,10.515 "/>
<polygon fill="#818181" points="2.907,8.992 2.907,10.515 9.486,10.515 7.964,8.992 "/>
<path fill="#818181" d="M14.51,2.718c-1.605-1.606-3.74-2.49-6.01-2.49c-2.27,0-4.405,0.884-6.01,2.49C0.884,4.322,0,6.457,0,8.728
	s0.884,4.405,2.49,6.01c1.605,1.606,3.74,2.49,6.01,2.49c2.27,0,4.404-0.884,6.01-2.49c1.606-1.604,2.49-3.739,2.49-6.01
	S16.116,4.322,14.51,2.718 M15.105,8.728c0,1.453-0.473,2.798-1.271,3.889L4.611,3.393C5.702,2.595,7.047,2.122,8.5,2.122
	C12.143,2.122,15.105,5.085,15.105,8.728 M1.895,8.728c0-1.478,0.488-2.843,1.31-3.944l9.238,9.239
	c-1.101,0.822-2.467,1.31-3.943,1.31C4.858,15.332,1.895,12.369,1.895,8.728"/>
</svg>
