<?xml version="1.0" encoding="utf-8"?>
<!-- Generator: Adobe Illustrator 16.0.0, SVG Export Plug-In . SVG Version: 6.00 Build 0)  -->
<!DOCTYPE svg PUBLIC "-//W3C//DTD SVG 1.1//EN" "http://www.w3.org/Graphics/SVG/1.1/DTD/svg11.dtd">
<svg version="1.1" id="Layer_1" xmlns="http://www.w3.org/2000/svg" xmlns:xlink="http://www.w3.org/1999/xlink" x="0px" y="0px"
	 width="80px" height="21px" viewBox="0 0 80 21" enable-background="new 0 0 80 21" xml:space="preserve">
<path fill="#FFFFFF" d="M36.739,1.84h0.279v3.826h-0.279c-0.335-0.922-0.718-1.639-1.144-2.155c-0.31-0.364-0.697-0.683-1.161-0.956
	c-0.467-0.275-0.988-0.49-1.566-0.648c-0.58-0.157-1.163-0.235-1.756-0.235c-0.443,0-0.837,0.061-1.182,0.184
	c-0.347,0.122-0.642,0.306-0.881,0.545c-0.169,0.169-0.306,0.362-0.408,0.575C28.543,3.188,28.49,3.392,28.49,3.59
	c0,0.373,0.146,0.693,0.432,0.968c0.134,0.132,0.324,0.26,0.572,0.383c0.247,0.122,0.568,0.242,0.959,0.358
	c0.391,0.12,0.938,0.263,1.642,0.432c0.193,0.058,0.324,0.093,0.392,0.105l0.394,0.096l0.621,0.161
	c1.056,0.271,1.826,0.51,2.31,0.717c0.485,0.207,0.899,0.484,1.24,0.823c0.266,0.251,0.473,0.545,0.618,0.881
	c0.146,0.335,0.222,0.697,0.222,1.085c0,0.385-0.084,0.77-0.248,1.155c-0.166,0.388-0.398,0.726-0.705,1.021
	c-0.394,0.405-0.879,0.708-1.459,0.91c-0.577,0.201-1.236,0.303-1.978,0.303c-0.516,0-1.003-0.052-1.458-0.155
	c-0.455-0.104-1.009-0.294-1.666-0.57c-0.425-0.172-0.752-0.286-0.974-0.348c-0.225-0.062-0.435-0.094-0.634-0.094
	c-0.376,0-0.696,0.101-0.962,0.301c-0.263,0.198-0.438,0.484-0.521,0.852h-0.28V7.811h0.28c0.11,0.916,0.48,1.747,1.11,2.494
	c0.377,0.434,0.86,0.843,1.45,1.216c0.589,0.376,1.204,0.668,1.85,0.875c0.644,0.21,1.257,0.312,1.837,0.312
	c0.517,0,0.992-0.085,1.421-0.254c0.429-0.172,0.761-0.407,1-0.711c0.242-0.304,0.362-0.647,0.362-1.032
	c0-0.405-0.163-0.771-0.487-1.095c-0.149-0.143-0.344-0.276-0.581-0.398c-0.236-0.123-0.542-0.248-0.918-0.377
	c-0.377-0.128-0.893-0.28-1.546-0.455l-0.799-0.216c-1.249-0.335-2.112-0.598-2.592-0.784c-0.536-0.196-0.959-0.395-1.265-0.589
	c-0.307-0.199-0.572-0.45-0.797-0.753c-0.329-0.427-0.496-0.896-0.496-1.406c0-0.618,0.184-1.172,0.552-1.665
	c0.367-0.493,0.884-0.878,1.543-1.155c0.662-0.277,1.395-0.417,2.199-0.417c1.213,0,2.473,0.338,3.78,1.015
	c0.458,0.23,0.77,0.345,0.933,0.345C36.261,2.759,36.558,2.452,36.739,1.84"/>
<path fill="#FFFFFF" d="M44.58,4.014l-2.189,4.979h4.433L44.58,4.014z M45.426,1.4h0.295l4.491,9.766
	c0.146,0.303,0.308,0.554,0.485,0.752c0.178,0.195,0.379,0.338,0.603,0.426c0.226,0.088,0.488,0.135,0.791,0.135h0.294v0.309h-6.48
	v-0.309h0.849c0.42,0,0.729-0.059,0.922-0.172c0.195-0.117,0.292-0.292,0.292-0.534c0-0.149-0.038-0.329-0.113-0.542
	c-0.079-0.213-0.248-0.599-0.509-1.158c-0.017-0.032-0.041-0.085-0.072-0.161c-0.032-0.076-0.067-0.146-0.105-0.216l-0.183-0.408
	h-4.731l-0.358,0.831c-0.117,0.283-0.176,0.569-0.176,0.855c0,0.244,0.067,0.489,0.204,0.729c0.134,0.239,0.313,0.42,0.531,0.543
	c0.143,0.084,0.271,0.144,0.388,0.172c0.113,0.029,0.277,0.049,0.49,0.062v0.309h-4.548v-0.309c0.33-0.038,0.593-0.097,0.788-0.179
	c0.195-0.078,0.411-0.213,0.649-0.398c0.566-0.438,1.118-1.261,1.657-2.468L45.426,1.4z"/>
<path fill="#FFFFFF" d="M53.266,1.624h7.616v0.295h-0.808c-0.687,0-1.196,0.166-1.526,0.495c-0.329,0.33-0.496,0.843-0.496,1.535
	v8.543h2.895c0.568,0,1.107-0.125,1.612-0.379c0.508-0.254,0.948-0.607,1.321-1.06c0.222-0.283,0.42-0.563,0.589-0.84
	c0.173-0.277,0.336-0.612,0.488-1.006c0.154-0.395,0.306-0.846,0.457-1.359h0.295v4.941H53.266l-0.015-0.298h0.415
	c1.353,0,2.03-0.683,2.03-2.045V3.949c0-1.354-0.678-2.03-2.03-2.03h-0.4V1.624z"/>
<path fill="#FFFFFF" d="M66.876,1.624h13.091v5.667L79.71,7.306c-0.131-1.418-0.56-2.634-1.278-3.651
	c-0.851-1.155-1.934-1.735-3.245-1.735h-0.583v8.528c0,1.354,0.676,2.029,2.023,2.029h1.687v0.313h-9.751v-0.313h1.671
	c1.354,0,2.03-0.676,2.03-2.029V1.919h-0.721c-1.333,0-2.412,0.624-3.244,1.872c-0.41,0.613-0.723,1.342-0.936,2.188
	c-0.07,0.289-0.137,0.727-0.207,1.313h-0.28V1.624z"/>
<path fill="#FFFFFF" d="M27.803,18.004v3.519h0.721c0.204,0,0.376-0.013,0.52-0.035c0.14-0.023,0.266-0.059,0.373-0.111
	c0.104-0.052,0.198-0.122,0.277-0.207c0.294-0.3,0.443-0.761,0.443-1.386c0-0.204-0.019-0.396-0.057-0.58
	c-0.034-0.181-0.087-0.341-0.156-0.481c-0.07-0.137-0.158-0.26-0.264-0.364c-0.084-0.084-0.183-0.154-0.291-0.207
	c-0.11-0.051-0.236-0.087-0.379-0.111c-0.143-0.023-0.314-0.035-0.517-0.035H27.803z M26.205,17.905h2.471
	c0.398,0,0.749,0.05,1.05,0.151c0.3,0.1,0.551,0.253,0.755,0.461c0.184,0.181,0.327,0.383,0.426,0.606
	c0.103,0.228,0.152,0.458,0.152,0.697c0,0.26-0.056,0.502-0.164,0.724c-0.108,0.221-0.259,0.414-0.458,0.574
	c-0.198,0.164-0.434,0.289-0.706,0.377c-0.271,0.087-0.564,0.131-0.88,0.131h-2.646v-0.104h0.137c0.228,0,0.396-0.057,0.508-0.166
	c0.113-0.111,0.169-0.28,0.169-0.512v-2.164c0-0.23-0.056-0.402-0.166-0.513c-0.111-0.108-0.281-0.164-0.511-0.164h-0.137V17.905z"
	/>
<path fill="#FFFFFF" d="M31.607,17.905h3.957v1.44h-0.078c-0.073-0.251-0.141-0.44-0.195-0.565
	c-0.059-0.125-0.134-0.245-0.229-0.356c-0.11-0.134-0.232-0.227-0.363-0.286c-0.22-0.09-0.484-0.134-0.797-0.134H33.17v1.769h0.199
	c0.291,0,0.524-0.126,0.697-0.376c0.086-0.133,0.153-0.286,0.197-0.465c0.021-0.079,0.041-0.189,0.06-0.339h0.093v2.439h-0.093
	c-0.024-0.131-0.048-0.254-0.076-0.371c-0.03-0.116-0.065-0.213-0.101-0.283c-0.037-0.072-0.084-0.145-0.139-0.218
	c-0.161-0.199-0.389-0.298-0.683-0.298H33.17v1.666h0.613c0.181,0,0.344-0.013,0.489-0.038c0.144-0.026,0.274-0.067,0.392-0.12
	c0.113-0.055,0.221-0.125,0.322-0.213c0.177-0.146,0.311-0.329,0.406-0.551c0.056-0.125,0.111-0.299,0.172-0.511h0.1v1.531h-4.051
	l-0.006-0.099h0.102c0.449,0,0.677-0.229,0.677-0.684v-2.164c0-0.23-0.056-0.402-0.167-0.513c-0.109-0.108-0.28-0.164-0.51-0.164
	h-0.102V17.905z"/>
<path fill="#FFFFFF" d="M36.043,17.905h2.176v0.099h-0.266c-0.123,0-0.216,0.024-0.285,0.073c-0.07,0.05-0.105,0.12-0.105,0.213
	c0,0.085,0.025,0.184,0.078,0.303l1.015,2.227l0.853-1.919c0.066-0.149,0.102-0.275,0.102-0.383c0-0.151-0.046-0.274-0.143-0.364
	s-0.228-0.141-0.396-0.149v-0.099h1.502v0.099c-0.143,0.015-0.271,0.056-0.382,0.123s-0.213,0.163-0.307,0.288
	c-0.094,0.126-0.187,0.292-0.28,0.499L38.367,21.7l-0.094,0.003l-1.441-3.143c-0.169-0.372-0.39-0.557-0.658-0.557h-0.131V17.905z"
	/>
<path fill="#FFFFFF" d="M40.872,17.905h3.958v1.44h-0.079c-0.072-0.251-0.14-0.44-0.195-0.565c-0.058-0.125-0.134-0.245-0.228-0.356
	c-0.11-0.134-0.233-0.227-0.364-0.286c-0.219-0.09-0.483-0.134-0.796-0.134h-0.732v1.769h0.198c0.291,0,0.525-0.126,0.697-0.376
	c0.087-0.133,0.155-0.286,0.198-0.465c0.021-0.079,0.041-0.189,0.059-0.339h0.093v2.439h-0.093
	c-0.023-0.131-0.047-0.254-0.076-0.371c-0.028-0.116-0.063-0.213-0.099-0.283c-0.038-0.072-0.085-0.145-0.14-0.218
	c-0.161-0.199-0.389-0.298-0.684-0.298h-0.154v1.666h0.612c0.181,0,0.344-0.013,0.49-0.038c0.143-0.026,0.274-0.067,0.391-0.12
	c0.114-0.055,0.223-0.125,0.324-0.213c0.175-0.146,0.31-0.329,0.405-0.551c0.055-0.125,0.111-0.299,0.172-0.511h0.099v1.531h-4.051
	l-0.006-0.099h0.102c0.449,0,0.678-0.229,0.678-0.684v-2.164c0-0.23-0.057-0.402-0.166-0.513c-0.111-0.108-0.28-0.164-0.512-0.164
	h-0.102V17.905z"/>
<path fill="#FFFFFF" d="M45.351,17.905h2.538v0.099h-0.27c-0.227,0-0.398,0.056-0.507,0.164c-0.111,0.11-0.167,0.282-0.167,0.513
	v2.848h0.966c0.189,0,0.367-0.041,0.537-0.126c0.169-0.084,0.315-0.204,0.44-0.354c0.072-0.096,0.14-0.188,0.195-0.28
	c0.059-0.093,0.11-0.203,0.163-0.335c0.052-0.131,0.103-0.282,0.151-0.455h0.1v1.648h-4.147l-0.007-0.099h0.141
	c0.449,0,0.677-0.229,0.677-0.684v-2.164c0-0.452-0.228-0.677-0.677-0.677h-0.134V17.905z"/>
<path fill="#FFFFFF" d="M52.341,17.927c-0.163,0-0.314,0.026-0.458,0.085c-0.143,0.055-0.263,0.134-0.361,0.235
	c-0.105,0.114-0.195,0.245-0.271,0.4c-0.076,0.154-0.134,0.323-0.172,0.513c-0.038,0.19-0.055,0.395-0.055,0.613
	c0,0.274,0.028,0.521,0.09,0.746c0.058,0.225,0.146,0.417,0.26,0.581c0.113,0.163,0.25,0.286,0.408,0.37
	c0.157,0.088,0.332,0.129,0.527,0.129c0.263,0,0.49-0.073,0.686-0.226c0.196-0.148,0.345-0.364,0.447-0.642
	c0.104-0.28,0.156-0.612,0.156-0.994c0-0.248-0.028-0.481-0.084-0.698c-0.059-0.218-0.14-0.404-0.246-0.564
	c-0.106-0.164-0.235-0.289-0.388-0.382c-0.071-0.054-0.16-0.092-0.256-0.123C52.525,17.941,52.431,17.927,52.341,17.927
	 M52.271,17.83c0.347,0,0.664,0.056,0.953,0.166c0.289,0.111,0.539,0.274,0.752,0.487c0.182,0.181,0.318,0.382,0.418,0.607
	c0.097,0.222,0.146,0.448,0.146,0.683c0,0.35-0.099,0.67-0.297,0.965c-0.199,0.295-0.467,0.528-0.805,0.703
	c-0.343,0.172-0.716,0.257-1.12,0.257c-0.311,0-0.599-0.05-0.873-0.146c-0.271-0.1-0.51-0.236-0.721-0.414
	c-0.207-0.179-0.369-0.389-0.483-0.625c-0.117-0.239-0.175-0.487-0.175-0.746c0-0.344,0.099-0.665,0.3-0.966
	c0.202-0.297,0.47-0.533,0.808-0.708C51.51,17.918,51.877,17.83,52.271,17.83"/>
<path fill="#FFFFFF" d="M56.618,18.004v1.853h0.743c0.367,0,0.639-0.075,0.816-0.228c0.175-0.152,0.264-0.385,0.264-0.703
	c0-0.371-0.123-0.63-0.365-0.775c-0.087-0.053-0.19-0.087-0.307-0.111c-0.116-0.023-0.263-0.035-0.438-0.035H56.618z M55.031,17.905
	h2.223c0.131,0,0.274,0.006,0.431,0.015c0.155,0.008,0.296,0.017,0.421,0.032c0.125,0.014,0.228,0.029,0.309,0.046
	c0.292,0.062,0.517,0.172,0.674,0.336c0.155,0.16,0.231,0.359,0.231,0.598c0,0.163-0.035,0.31-0.111,0.435
	c-0.076,0.129-0.185,0.236-0.33,0.324c-0.143,0.091-0.321,0.154-0.531,0.2c-0.21,0.048-0.445,0.07-0.708,0.07h-1.021v0.884
	c0,0.455,0.227,0.684,0.676,0.684h0.187v0.099h-2.455v-0.099h0.131c0.453,0,0.677-0.229,0.677-0.684v-2.164
	c0-0.452-0.224-0.677-0.677-0.677h-0.125V17.905z"/>
<path fill="#FFFFFF" d="M59.637,17.905h1.555l1.403,2.847l1.392-2.847h1.467v0.099h-0.137c-0.229,0-0.4,0.056-0.512,0.166
	c-0.109,0.111-0.166,0.28-0.166,0.511v2.164c0,0.229,0.057,0.397,0.169,0.512c0.111,0.109,0.28,0.166,0.509,0.166h0.137v0.104
	h-2.406v-0.104h0.16c0.228,0,0.396-0.057,0.508-0.166c0.11-0.111,0.166-0.28,0.166-0.512v-2.528h-0.012l-1.599,3.311H62.18
	l-1.616-3.302h-0.011v2.4c0,0.166,0.032,0.31,0.096,0.426c0.064,0.116,0.158,0.205,0.283,0.269c0.125,0.064,0.274,0.096,0.452,0.103
	v0.104h-1.747v-0.104h0.038c0.239,0,0.429-0.07,0.563-0.211c0.137-0.14,0.207-0.329,0.207-0.568v-2.063
	c0-0.23-0.057-0.402-0.166-0.513c-0.111-0.108-0.28-0.164-0.512-0.164h-0.131V17.905z"/>
<path fill="#FFFFFF" d="M65.771,17.905h3.958v1.44H69.65c-0.072-0.251-0.14-0.44-0.194-0.565c-0.059-0.125-0.134-0.245-0.229-0.356
	c-0.109-0.134-0.232-0.227-0.364-0.286c-0.219-0.09-0.483-0.134-0.796-0.134h-0.732v1.769h0.199c0.291,0,0.524-0.126,0.696-0.376
	c0.087-0.133,0.155-0.286,0.198-0.465c0.021-0.079,0.041-0.189,0.06-0.339h0.093v2.439h-0.093c-0.024-0.131-0.048-0.254-0.076-0.371
	c-0.029-0.116-0.064-0.213-0.1-0.283c-0.038-0.072-0.085-0.145-0.14-0.218c-0.161-0.199-0.388-0.298-0.683-0.298h-0.155v1.666h0.612
	c0.182,0,0.345-0.013,0.49-0.038c0.144-0.026,0.274-0.067,0.392-0.12c0.113-0.055,0.222-0.125,0.323-0.213
	c0.176-0.146,0.31-0.329,0.405-0.551c0.056-0.125,0.111-0.299,0.172-0.511h0.1v1.531h-4.052l-0.006-0.099h0.103
	c0.448,0,0.677-0.229,0.677-0.684v-2.164c0-0.23-0.056-0.402-0.166-0.513c-0.111-0.108-0.28-0.164-0.511-0.164h-0.103V17.905z"/>
<path fill="#FFFFFF" d="M70.306,17.905h1.493l2.588,2.681v-1.604c0-0.195-0.033-0.367-0.1-0.514
	c-0.067-0.146-0.163-0.257-0.288-0.333c-0.067-0.043-0.137-0.071-0.204-0.093c-0.068-0.017-0.164-0.029-0.286-0.038v-0.099h1.843
	v0.099h-0.037c-0.269,0-0.473,0.085-0.612,0.254c-0.14,0.172-0.21,0.42-0.21,0.744v2.663h-0.088l-3.215-3.302v2.211
	c0,0.216,0.026,0.388,0.079,0.516c0.05,0.129,0.135,0.231,0.25,0.301c0.095,0.059,0.208,0.094,0.343,0.11
	c0.074,0.012,0.18,0.021,0.319,0.027v0.099h-1.941v-0.099c0.198-0.013,0.361-0.047,0.486-0.105s0.217-0.148,0.277-0.266
	c0.058-0.116,0.088-0.263,0.088-0.438v-2.103c0-0.132-0.026-0.239-0.085-0.33c-0.058-0.09-0.143-0.16-0.254-0.21
	c-0.108-0.049-0.242-0.073-0.398-0.073h-0.048V17.905z"/>
<path fill="#FFFFFF" d="M75.637,17.905H80v1.89l-0.085,0.003c-0.044-0.472-0.187-0.878-0.426-1.216
	c-0.286-0.385-0.645-0.578-1.082-0.578h-0.194v2.841c0,0.452,0.224,0.678,0.673,0.678h0.563v0.104h-3.249v-0.104h0.558
	c0.448,0,0.677-0.226,0.677-0.678v-2.841h-0.242c-0.444,0-0.802,0.207-1.08,0.621c-0.137,0.208-0.242,0.45-0.312,0.733
	c-0.023,0.096-0.046,0.241-0.07,0.437h-0.093V17.905z"/>
<polygon fill="#FFFFFF" points="0,8.651 8.648,8.651 11.291,0.963 13.934,8.651 22.462,8.651 15.497,13.217 18.259,20.786 
	11.291,16.221 4.326,20.786 6.968,13.217 "/>
</svg>
