<?xml version="1.0" encoding="utf-8"?>
<!-- Generator: Adobe Illustrator 16.0.0, SVG Export Plug-In . SVG Version: 6.00 Build 0)  -->
<!DOCTYPE svg PUBLIC "-//W3C//DTD SVG 1.1//EN" "http://www.w3.org/Graphics/SVG/1.1/DTD/svg11.dtd">
<svg version="1.1" id="Layer_1" xmlns="http://www.w3.org/2000/svg" xmlns:xlink="http://www.w3.org/1999/xlink" x="0px" y="0px"
	 width="16px" height="16px" viewBox="0 0 16 16" enable-background="new 0 0 16 16" xml:space="preserve">
<path fill="#FFFFFF" d="M2.654,0.227C2.585,0.158,2.493,0.12,2.395,0.12c-0.098,0-0.189,0.038-0.259,0.107L1.069,1.294
	C0.478,1.89,0.163,2.712,0.203,3.552c0.306,6.512,5.442,11.733,11.95,12.143l0.179,0.01h0.193c0.803,0,1.556-0.313,2.121-0.881
	l1.048-1.047c0.142-0.143,0.142-0.375,0-0.518l-3.591-3.59c-0.142-0.141-0.375-0.141-0.518,0l-1.607,1.609
	c-0.087,0.086-0.209,0.119-0.325,0.092c-2.561-0.592-4.563-2.54-5.226-5.083L4.375,6.077C4.345,5.959,4.38,5.832,4.466,5.746
	l1.595-1.602c0.144-0.144,0.144-0.375,0-0.519L2.654,0.227z M3.943,5.221c-0.269,0.27-0.377,0.667-0.281,1.034l0.052,0.212
	c0.73,2.81,2.941,4.962,5.771,5.617c0.361,0.086,0.749-0.023,1.011-0.287l1.349-1.35l3.071,3.07l-0.792,0.793
	c-0.422,0.42-1.005,0.662-1.601,0.662c-0.046,0-0.093-0.002-0.14-0.004l-0.179-0.012C6.07,14.576,1.222,9.662,0.928,3.523
	c-0.029-0.635,0.211-1.257,0.66-1.707L2.4,1.002L5.283,3.88L3.943,5.221z"/>
</svg>
