<svg xmlns="http://www.w3.org/2000/svg" viewBox="0 0 20.1 20.1"><defs><style>.cls-1{fill:#999;}</style></defs><title>Asset 4</title><g id="Layer_2" data-name="Layer 2"><g id="SET_BT_Location_" data-name="SET BT (Location)"><g id="BT_Phone_IA_" data-name="BT Phone (IA)"><g id="_Group_" data-name="&lt;Group&gt;"><g id="_Group_2" data-name="&lt;Group&gt;"><path id="_Compound_Path_" data-name="&lt;Compound Path&gt;" class="cls-1" d="M3.67.64h0A2.73,2.73,0,0,1,5.57,1.89C7.51,4.3,6.82,5,5.68,6.1l-.21.21c-.86.87.08,2.65,2.88,5.45a19.57,19.57,0,0,0,3,2.53,3.37,3.37,0,0,0,1.7.66,1.09,1.09,0,0,0,.8-.31l.22-.22c.68-.69,1.12-1.11,1.75-1.11a4.49,4.49,0,0,1,2.45,1.23,2.72,2.72,0,0,1,1.25,1.85c0,.85-.73,1.57-1.46,2.27l-.06.05-.33.32a2,2,0,0,1-1.46.43,8.06,8.06,0,0,1-2.73-.59,21.53,21.53,0,0,1-7.24-5,21.56,21.56,0,0,1-5-7.24C.5,4.77.44,3.12,1.07,2.49l.31-.32.07-.07C2.13,1.38,2.84.64,3.67.64m0-.64A4,4,0,0,0,1,1.66L.62,2c-.83.83-.83,2.65,0,4.87a22.21,22.21,0,0,0,5.11,7.46,22.16,22.16,0,0,0,7.46,5.11,8.63,8.63,0,0,0,3,.63,2.64,2.64,0,0,0,1.9-.62l.38-.37c.8-.76,1.7-1.62,1.66-2.76A3.28,3.28,0,0,0,18.61,14a4.87,4.87,0,0,0-2.85-1.37,3.19,3.19,0,0,0-2.2,1.3l-.21.21a.47.47,0,0,1-.35.13,3.05,3.05,0,0,1-1.35-.56A19,19,0,0,1,8.8,11.31C5.35,7.86,5.72,7,5.92,6.76l.21-.21c1.2-1.18,2.24-2.2-.06-5.05A3.3,3.3,0,0,0,3.74,0Z"/></g></g></g></g></g></svg>