<?xml version="1.0" encoding="utf-8"?>
<!-- Generator: Adobe Illustrator 19.0.0, SVG Export Plug-In . SVG Version: 6.00 Build 0)  -->
<svg version="1.1" id="Layer_1" xmlns="http://www.w3.org/2000/svg" xmlns:xlink="http://www.w3.org/1999/xlink" x="0px" y="0px"
	 viewBox="0 0 1366.4 572.8" style="enable-background:new 0 0 1366.4 572.8;" xml:space="preserve">
<style type="text/css">
	.st0{fill:#EF3C3A;}
	.st1{fill:#EF4238;}
</style>
<g id="XMLID_1919_">
	<path id="XMLID_1915_" class="st0" d="M272.3,543.9c8,1.1,17.8,0.2,29.4-2.7c23.3-5.5,44.3-18,63.2-37.6
		c24.3-25.4,54.1-73.1,89.4-142.8c9.1-17.8,41.2-86.1,96.5-205c36.7-78.9,79-128.1,127-147.7c19.6-8,39.8-10,60.5-6
		c17.1,2.9,32.2,9.1,45.2,18.5c10.2,8,13.6,20,10.4,36c-1.8,8-4.7,15.3-8.7,21.8c-0.4-6.5-1.6-13.1-3.8-19.6
		c-5.1-13.1-12.9-19.4-23.4-19.1c-19.3,1.1-40.5,10.2-63.8,27.3c-24,18.2-44.3,40.9-61.1,68.1c-24.4,38.9-57.6,97.6-99.8,176.1
		c-9.8,17.8-24.7,46-44.7,84.5c-15.6,29.1-79.7,148.3-190.3,177.2c-17.2,4.5-34.9-8.7-52.3-16.4c-35.3-15.3-52.5-33.4-51.8-54.5
		c0.4-16.4,9.4-42.2,27.3-77.4c10.9-21.8,28.9-54.3,54-97.6c24.3-41.1,39.6-68.1,45.8-81.2c10.5-21.8,10.9-31.3,1.1-28.3
		c-46.2,13.1-102.5,40.7-169,82.9c-39.2,24.7-69.2,48.5-89.9,71.4c-25.1,28-35.3,53.6-30.5,76.9c5.8,32.4,17.4,49.1,34.9,50.2
		c8.7,0.4,16.9-2.4,24.5-8.2c-4,7.3-9.3,13.1-15.8,17.4c-13.5,8.7-27.6,6-42.5-8.2c-20-19.3-31.3-42.2-33.8-68.7
		c-2.2-31.3,9.1-60,33.8-86.1c29.1-30.9,95.8-67.4,200.1-109.6c46.5-18.5,86.3-31.4,119.4-38.7c37.4-8.7,60.9-8.9,70.3-0.5
		C329.7,395.2,279.2,511.2,272.3,543.9z"/>
	<path id="XMLID_1913_" class="st0" d="M610.8,438.1c-22.5,45.4-36.5,76-42,91.6c3.3,0,13.8-8,31.6-24
		c21.1-18.5,41.8-39.4,62.1-62.7c0,16-3.3,27.8-9.8,35.4c-13.8,15.3-30.3,32.9-49.6,52.9c-3.3,3.3-7.5,8-12.5,14.2
		c-5.5,6.5-9.3,11.1-11.4,13.6c-8.7,9.1-16.2,13.6-22.4,13.6c-2.9,0-12.7-4.4-29.4-13.1c-12.4-6.9-19.1-12.9-20.2-18
		c-1.8-9.1,12-52.3,41.4-129.7c29.4-77,45.8-114.3,49.1-111.8c2.9,2.5,8.2,6.2,15.8,10.9c9.1,5.5,15.3,9.5,18.5,12
		c13.4,9.5,18.9,18.9,16.4,28.3C644.4,367.8,631.9,396.7,610.8,438.1z"/>
	<path id="XMLID_1912_" class="st1" d="M607.6,274.6c8-19.6,17.4-41.4,28.3-65.4c11.6-24,17.8-35.6,18.5-34.9
		c2.9,2.5,8.5,6.5,16.9,12c8.7,5.8,14.9,10.2,18.5,13.1c14.5,11.3,20.5,21.6,18,31.1c-4.4,16.7-12.7,33.4-25.1,50.2
		c-3.6,4.4-15.8,11.1-36.5,20.2L607.6,274.6z"/>
	<path id="XMLID_1909_" class="st0" d="M875.8,344.9c-8.7,33.1-28.7,94.7-60,184.8c3.3,0,13.6-8,31.1-24
		c21.4-18.5,42.3-39.4,62.7-62.7c-0.4,16.4-3.8,28.2-10.4,35.4c-13.8,15.3-30.2,32.9-49.1,52.9c-3.3,3.6-7.5,8.5-12.5,14.7
		c-5.5,6.2-9.5,10.5-12,13.1c-8.4,9.1-15.6,13.6-21.8,13.6c-3.3,0-13.1-4.4-29.4-13.1c-12.4-6.5-19.1-12.5-20.2-18
		c-1.5-6.9,7.8-38.3,27.8-94.3c10.5-29.4,16.7-47.6,18.5-54.5c5.5-15.6,7.1-22.9,4.9-21.8c-12,5.5-34.2,17.4-66.5,36
		c-8.7,25.4-21.3,59.4-37.6,101.9c-14.2,37.8-22,59.1-23.4,63.8c-10.2-4.4-19.8-9.8-28.9-16.4c-18.2-12.7-24.7-24.9-19.6-36.5
		c12.7-27.3,29.6-72.5,50.7-135.7c18.9-56,28.3-84.1,28.3-84.5c3.6,2.9,9.1,6.4,16.4,10.4c9.8,5.5,15.6,8.7,17.4,9.8
		c12.7,8.4,18,16.9,15.8,25.6c-1.5,5.5-3.3,11.5-5.4,18c58.1-44.3,88.7-65.4,91.6-63.2c2.2,2.2,6.5,5.6,13.1,10.4
		c5.5,3.6,9.3,6.7,11.4,9.3C875.9,327.1,878.3,335.4,875.8,344.9z"/>
	<path id="XMLID_1889_" class="st0" d="M1120,344.9c-8.7,33.1-28.7,94.7-60,184.8c3.3,0,13.6-8,31.1-24
		c21.4-18.5,42.3-39.4,62.7-62.7c-0.4,16.4-3.8,28.2-10.4,35.4c-13.8,15.3-30.2,32.9-49.1,52.9c-3.3,3.6-7.5,8.5-12.5,14.7
		c-5.5,6.2-9.5,10.5-12,13.1c-8.4,9.1-15.6,13.6-21.8,13.6c-3.3,0-13.1-4.4-29.4-13.1c-12.4-6.5-19.1-12.5-20.2-18
		c-1.5-6.9,7.8-38.3,27.8-94.3c10.5-29.4,16.7-47.6,18.5-54.5c5.5-15.6,7.1-22.9,4.9-21.8c-12,5.5-34.2,17.4-66.5,36
		c-8.7,25.4-21.3,59.4-37.6,101.9c-14.2,37.8-22,59.1-23.4,63.8c-10.2-4.4-19.8-9.8-28.9-16.4c-18.2-12.7-24.7-24.9-19.6-36.5
		c12.7-27.3,29.6-72.5,50.7-135.7c18.9-56,28.3-84.1,28.3-84.5c3.6,2.9,9.1,6.4,16.4,10.4c9.8,5.5,15.6,8.7,17.4,9.8
		c12.7,8.4,18,16.9,15.8,25.6c-1.5,5.5-3.3,11.5-5.4,18c58.1-44.3,88.7-65.4,91.6-63.2c2.2,2.2,6.5,5.6,13.1,10.4
		c5.5,3.6,9.3,6.7,11.4,9.3C1120.2,327.1,1122.5,335.4,1120,344.9z"/>
	<path id="XMLID_1886_" class="st0" d="M1278.1,517.2c5.8,0,10.2-1.1,13.1-3.3c0.7-0.7,5.3-4,13.6-9.8c6.9-5.5,12.9-10.4,18-14.7
		c16.4-13.8,30.9-30.2,43.6-49.1c-1.5,14.9-4.7,26.7-9.8,35.4c-7.6,12.7-21.8,29.8-42.5,51.2c-23.6,24.4-35.1,36.5-34.3,36.5
		c-13.5,5.1-20.7,7.5-21.8,7.1c-21.4-12-34.2-20.4-38.2-25.1c-9.1,10.5-15.8,17.3-20.2,20.2c-8.4,6.2-16.7,8.4-25.1,6.5
		c-15.3-3.3-33.3-16.4-54-39.2c-5.1-5.8-5.8-22.7-2.2-50.7c4-26.5,10.5-52.9,19.6-79c6.5-18.9,16.4-37.8,29.4-56.7
		c13.1-19.3,26.3-33.4,39.8-42.5c8-5.5,28.3-6,61.1-1.6c11.3,1.5,18.9,9.6,22.9,24.5c4.4-12.7,8.5-25.4,12.5-38.2
		c17.1,16.4,32,28.9,44.7,37.6c3.3,2.2,4.9,7.3,4.9,15.3c-13.8,36-26.9,67.6-39.2,94.9C1297,474.3,1285,501.2,1278.1,517.2z
		 M1190.3,551c3.3-2.9,13.8-14.5,31.6-34.9c16.4-36,36-88.5,58.9-157.5c-1.5-16.7-4.4-29.6-8.7-38.7c-6.5-4.4-11.6-4.7-15.3-1.1
		c-14.5,14.2-26.9,29.6-37.1,46.3c-17.8,28.7-34.2,67.6-49.1,116.7c-4.4,13.5-6.9,26.9-7.6,40.3c-1.1,16.4,1.4,27.8,7.6,34.3
		C1174.7,561.5,1181.2,559.7,1190.3,551z"/>
</g>
</svg>
